<!DOCTYPE svg PUBLIC "-//W3C//DTD SVG 20010904//EN" "http://www.w3.org/TR/2001/REC-SVG-20010904/DTD/svg10.dtd">
<svg version="1.0" xmlns="http://www.w3.org/2000/svg" width="325px" height="119px" viewBox="0 0 3250 1190" preserveAspectRatio="xMidYMid meet">
<g id="layer101" fill="#c0c0c0" stroke="none">
 <path d="M0 595 l0 -595 1625 0 1625 0 0 595 0 595 -1625 0 -1625 0 0 -595z"/>
 </g>
<g id="layer102" fill="#efefef" stroke="none">
 <path d="M0 595 l0 -595 1625 0 1625 0 0 595 0 595 -1625 0 -1625 0 0 -595z m423 538 c-7 -2 -21 -2 -30 0 -10 3 -4 5 12 5 17 0 24 -2 18 -5z m2364 0 c-4 -3 -10 -3 -14 0 -3 4 0 7 7 7 7 0 10 -3 7 -7z m-30 -10 c-4 -3 -10 -3 -14 0 -3 4 0 7 7 7 7 0 10 -3 7 -7z m-2290 -10 c-4 -3 -10 -3 -14 0 -3 4 0 7 7 7 7 0 10 -3 7 -7z m1840 -505 c-3 -8 -6 -5 -6 6 -1 11 2 17 5 13 3 -3 4 -12 1 -19z m-10 -45 c-4 -3 -7 0 -7 7 0 7 3 10 7 7 3 -4 3 -10 0 -14z"/>
 </g>
<g id="layer103" fill="#fefefe" stroke="none">
 <path d="M0 591 l0 -591 1625 0 1625 0 0 585 0 585 -57 1 c-244 2 -295 -3 -411 -42 -46 -16 -89 -26 -95 -22 -6 4 -7 1 -2 -7 6 -10 4 -12 -8 -7 -10 3 -17 2 -17 -3 0 -6 -8 -10 -19 -10 -10 0 -40 -17 -67 -37 -49 -36 -157 -133 -149 -133 3 0 -11 -25 -30 -55 -40 -62 -59 -104 -56 -122 1 -7 -3 -13 -9 -13 -6 0 -9 -4 -6 -9 9 -13 -23 -149 -50 -217 -13 -33 -24 -64 -24 -69 0 -14 -82 -135 -91 -135 -5 0 -9 -6 -9 -14 0 -8 -17 -28 -37 -45 -21 -17 -47 -39 -58 -49 -33 -30 -85 -64 -85 -55 0 4 -4 3 -8 -3 -18 -28 -207 -102 -262 -104 -14 0 -71 -2 -127 -5 -64 -3 -104 -1 -108 5 -4 6 -21 8 -42 4 -20 -4 -33 -3 -30 2 3 5 -8 10 -25 11 -45 3 -220 92 -267 136 -14 14 -36 30 -49 36 -12 7 -20 17 -16 23 4 6 3 8 -4 4 -6 -3 -21 8 -34 26 -12 18 -31 41 -40 50 -10 10 -18 22 -18 28 0 5 -7 18 -16 29 -24 27 -76 150 -80 186 -1 16 -4 30 -5 30 -1 0 -3 9 -4 20 -17 156 -64 273 -140 353 -54 58 -148 125 -180 129 -11 2 -31 8 -45 14 -36 17 -62 27 -85 33 -11 2 -40 12 -65 21 -30 12 -90 19 -182 23 l-138 5 0 -592z"/>
 </g>

</svg>